<mxfile host="app.diagrams.net" modified="2024-05-18T12:30:42.776Z" agent="Mozilla/5.0 (Macintosh; Intel Mac OS X 10_15_7) AppleWebKit/537.36 (KHTML, like Gecko) Chrome/125.0.0.0 Safari/537.36" version="24.4.4" etag="0mLIrIoOrbOOAA4FGICB" type="github">
  <diagram name="Сторінка-1" id="qh9o3oChrFjskPthGS7C">
    <mxGraphModel>
      <root>
        <mxCell id="0" />
        <mxCell id="1" parent="0" />
      </root>
    </mxGraphModel>
  </diagram>
</mxfile>
